<?xml version="1.0" standalone="no"?>
<!DOCTYPE svg PUBLIC "-//W3C//DTD SVG 20010904//EN"
 "http://www.w3.org/TR/2001/REC-SVG-20010904/DTD/svg10.dtd">
<svg version="1.0" xmlns="http://www.w3.org/2000/svg"
 width="512.000000pt" height="512.000000pt" viewBox="0 0 512.000000 512.000000"
 preserveAspectRatio="xMidYMid meet">
<metadata>
Created by potrace 1.16, written by Peter Selinger 2001-2019
</metadata>
<g transform="translate(0.000000,512.000000) scale(0.100000,-0.100000)"
fill="#000000" stroke="none">
<path d="M1641 3714 l76 -76 84 -2 c101 -2 164 -30 226 -100 78 -89 81 -164
17 -430 -147 -616 -283 -1114 -369 -1351 -74 -204 -148 -340 -233 -427 -40
-41 -43 -48 -25 -48 31 0 78 44 143 130 140 190 218 397 355 940 31 124 82
317 112 430 30 113 68 255 83 315 16 61 29 105 29 99 2 -20 -77 -398 -133
-642 -107 -463 -172 -682 -246 -837 -50 -103 -172 -295 -241 -377 -21 -26 -39
-49 -39 -52 0 -3 55 -6 123 -6 150 0 195 17 274 104 109 119 158 278 327 1066
128 598 186 854 196 869 10 16 40 2 40 -18 0 -10 -14 -85 -30 -168 l-31 -150
79 -124 c92 -146 143 -239 132 -239 -12 0 -32 31 -130 193 -55 93 -86 134 -91
125 -4 -7 -26 -98 -49 -203 -103 -471 -152 -692 -190 -847 -22 -93 -40 -173
-40 -180 0 -29 20 14 48 103 24 74 152 561 152 576 0 2 99 3 220 3 188 0 220
-2 220 -15 0 -12 -32 -15 -207 -17 -126 -2 -208 -7 -210 -13 -2 -6 75 -10 217
-10 140 0 220 4 221 10 0 9 78 -205 131 -360 11 -33 55 -152 98 -265 42 -113
90 -247 105 -298 22 -70 36 -99 58 -118 l29 -24 261 0 c143 0 257 4 251 8 -5
5 -39 30 -76 55 -78 55 -151 147 -207 262 -21 44 -83 193 -136 330 -54 138
-142 363 -197 500 -55 138 -122 310 -149 383 l-48 132 87 119 c48 65 137 188
197 272 141 197 239 294 378 378 59 35 107 65 107 67 0 2 -467 4 -1037 4
l-1038 0 76 -76z m1474 -96 c7 -6 -111 -158 -123 -158 -5 0 40 62 82 110 l30
35 -384 3 c-211 1 -385 0 -387 -2 -3 -2 0 -14 7 -25 10 -20 18 -21 273 -22
144 -1 285 -4 313 -7 l51 -7 -107 -152 c-58 -83 -138 -194 -177 -246 l-71 -94
45 -81 c24 -45 48 -82 53 -82 5 0 24 21 41 48 64 93 181 232 294 348 l116 119
-63 -86 c-35 -47 -94 -127 -133 -176 -38 -50 -108 -143 -154 -207 -69 -96 -86
-115 -97 -104 -22 22 -240 422 -331 607 -48 97 -89 180 -91 184 -5 9 804 5
813 -5z m95 -171 c0 -2 -10 -12 -22 -23 l-23 -19 19 23 c18 21 26 27 26 19z
m-1063 -229 c-3 -8 -6 -5 -6 6 -1 11 2 17 5 13 3 -3 4 -12 1 -19z m353 -555
c0 -9 -21 -13 -74 -13 l-73 0 18 103 c10 56 19 107 19 112 1 14 109 -187 110
-202z m503 -183 c24 -69 83 -224 132 -345 48 -121 109 -279 135 -351 50 -136
87 -217 123 -269 17 -25 18 -27 3 -16 -21 18 -81 136 -124 246 -96 248 -282
737 -296 782 l-17 51 -302 4 c-196 3 -311 8 -327 16 -19 8 51 10 303 9 l327
-2 43 -125z"/>
<path d="M2390 3515 c0 -2 5 -14 10 -27 l11 -23 241 3 c214 2 243 5 254 20 8
9 14 20 14 25 0 4 -119 7 -265 7 -146 0 -265 -2 -265 -5z"/>
</g>
</svg>